<?xml version="1.0" standalone="no"?>
<!DOCTYPE svg PUBLIC "-//W3C//DTD SVG 20010904//EN"
 "http://www.w3.org/TR/2001/REC-SVG-20010904/DTD/svg10.dtd">
<svg version="1.0" xmlns="http://www.w3.org/2000/svg"
 width="1075.000000pt" height="1080.000000pt" viewBox="0 0 1075.000000 1080.000000"
 preserveAspectRatio="xMidYMid meet">
<metadata>
Created by potrace 1.16, written by Peter Selinger 2001-2019
</metadata>
<g transform="translate(0.000000,1080.000000) scale(0.100000,-0.100000)"
fill="#000000" stroke="none">
<path d="M5038 10659 c-92 -4 -200 -13 -240 -19 -40 -6 -102 -14 -138 -19
-117 -14 -580 -103 -670 -128 -30 -8 -74 -24 -98 -35 -24 -10 -76 -28 -115
-38 -110 -29 -275 -85 -347 -118 -91 -42 -155 -69 -229 -99 -35 -14 -93 -42
-130 -63 -36 -20 -126 -67 -198 -103 -73 -36 -147 -77 -165 -90 -18 -13 -77
-50 -130 -81 -54 -31 -110 -68 -126 -81 -16 -13 -76 -56 -133 -94 -115 -78
-320 -236 -331 -256 -4 -7 -40 -39 -80 -71 -40 -32 -101 -86 -135 -119 -34
-33 -83 -80 -110 -105 -67 -64 -195 -199 -222 -235 -12 -16 -46 -55 -74 -86
-73 -78 -218 -263 -281 -356 -28 -43 -73 -107 -99 -143 -26 -35 -47 -68 -47
-72 0 -5 -26 -48 -57 -96 -69 -106 -301 -550 -302 -579 -1 -6 -25 -62 -55
-125 -49 -105 -156 -398 -156 -430 0 -8 -9 -32 -20 -53 -38 -74 -106 -365
-150 -640 -11 -71 -25 -144 -30 -160 -43 -134 -63 -765 -36 -1140 9 -126 20
-252 25 -280 6 -27 26 -140 45 -250 36 -202 119 -559 135 -579 5 -6 34 -92 66
-191 31 -99 71 -211 89 -250 18 -38 48 -108 67 -155 40 -100 242 -501 274
-545 12 -16 50 -77 84 -135 35 -58 87 -137 117 -176 30 -39 54 -74 54 -79 0
-12 102 -145 112 -145 4 0 14 -13 23 -29 13 -26 103 -136 260 -319 132 -153
565 -548 721 -658 22 -16 70 -51 105 -77 119 -89 368 -246 442 -279 26 -11 47
-24 47 -29 0 -9 307 -165 450 -228 47 -21 121 -51 165 -66 44 -15 94 -36 110
-45 17 -10 77 -32 135 -50 58 -18 122 -38 142 -46 20 -7 81 -25 135 -38 55
-14 115 -32 134 -40 34 -14 184 -47 371 -81 97 -17 400 -50 548 -59 546 -34
1066 3 1550 111 63 14 120 29 125 33 6 4 26 11 45 15 143 30 490 141 490 157
0 4 6 8 13 8 12 0 112 37 247 92 111 45 412 196 480 239 32 21 89 55 127 75
78 43 156 94 161 106 2 4 8 8 13 8 15 0 190 119 236 161 23 22 68 55 100 76
32 20 81 57 108 83 28 25 63 54 80 65 75 47 560 535 609 614 13 20 35 47 50
61 15 14 54 63 88 110 33 47 73 99 88 115 31 34 246 354 257 382 10 25 84 155
99 173 15 19 195 378 223 445 37 92 91 234 91 242 0 5 7 22 16 38 31 59 121
349 154 495 6 30 18 69 26 86 15 33 68 295 78 384 4 30 9 66 11 80 2 14 7 48
9 75 3 28 10 93 15 145 26 243 33 530 22 783 -10 214 -35 494 -57 627 -23 144
-68 370 -79 395 -7 17 -18 53 -25 80 -47 190 -116 414 -150 491 -25 55 -59
139 -77 194 -22 67 -247 528 -264 540 -3 3 -27 46 -52 95 -25 50 -79 138 -120
196 -41 59 -91 133 -110 165 -20 33 -48 70 -62 83 -15 13 -35 40 -45 60 -22
44 -206 265 -348 420 -185 200 -495 480 -629 567 -28 18 -53 37 -55 41 -5 13
-85 73 -97 73 -6 0 -11 5 -11 10 0 6 -4 10 -10 10 -9 0 -109 67 -120 81 -9 11
-200 129 -224 138 -12 5 -30 17 -39 25 -16 17 -253 146 -266 146 -4 0 -29 14
-55 31 -27 16 -110 55 -185 86 -75 30 -167 70 -206 88 -38 18 -158 61 -265 95
-107 33 -208 67 -225 75 -64 29 -371 95 -630 134 -77 12 -160 26 -185 31 -142
30 -669 46 -972 29z m2300 -2807 c1 -295 -1 -449 -8 -463 -6 -10 -82 -110
-168 -222 -87 -111 -252 -323 -367 -472 -115 -148 -225 -290 -245 -315 -20
-25 -162 -207 -315 -405 -416 -538 -371 -485 -413 -485 -51 0 -295 -33 -514
-69 -209 -34 -398 -56 -613 -71 -82 -6 -167 -12 -187 -14 -21 -2 -38 0 -38 5
0 5 113 154 252 331 138 178 274 352 302 388 210 271 787 1011 979 1255 26 33
47 63 47 68 0 4 -605 7 -1345 7 l-1345 0 0 455 0 455 1988 -2 1987 -3 3 -443z
m-478 -2367 c300 -8 545 -34 1055 -110 394 -59 642 -76 1075 -77 392 0 627 14
895 52 72 11 134 15 138 11 5 -5 2 -116 -7 -250 -32 -474 -112 -856 -270
-1290 -232 -637 -587 -1192 -1076 -1682 -444 -447 -897 -756 -1469 -1003 -580
-252 -1195 -377 -1840 -377 -842 1 -1617 207 -2340 624 -514 296 -989 711
-1363 1193 -482 620 -798 1356 -922 2149 -34 217 -64 671 -46 689 9 9 119 24
390 52 215 21 819 30 1075 15 277 -17 343 -24 815 -91 439 -62 736 -89 988
-91 110 -1 152 -4 152 -13 0 -6 -24 -41 -53 -76 -30 -36 -91 -114 -137 -175
-89 -117 -330 -428 -415 -535 -204 -257 -343 -442 -362 -479 l-23 -44 0 -509
c0 -561 -1 -549 63 -616 18 -19 50 -43 72 -55 l40 -22 2020 -3 c1462 -2 2034
0 2072 8 39 8 65 23 102 56 85 76 82 55 79 645 l-3 516 -30 49 c-34 54 -78 88
-134 104 -23 6 -434 10 -1148 10 -612 0 -1113 3 -1113 8 0 7 82 114 315 412
67 85 198 254 292 375 94 121 207 265 250 320 43 55 95 124 116 153 21 28 42
53 45 53 21 4 406 14 457 12 33 -1 143 -5 245 -8z"/>
</g>
</svg>
